<svg xmlns="http://www.w3.org/2000/svg" viewBox="0 0 129.29 20.74"><g id="Layer_2" data-name="Layer 2"><g id="Layer_1-2" data-name="Layer 1"><path d="M28.34,16.91V2.57h7.15v2h-5V8.81h4.35v2H30.54v6.14Z" style="fill:#231f20"/><path d="M43.4,6.45h1.9V16.91H43.14V14.73A3.29,3.29,0,0,1,40,17.12c-2.53,0-4-2.25-4-5.5s1.57-5.37,4.16-5.37a3.45,3.45,0,0,1,3.07,2.32Zm-.28,5.23c0-2.14-1-3.49-2.49-3.49s-2.52,1.31-2.52,3.49,1,3.5,2.52,3.5S43.12,13.82,43.12,11.68Z" style="fill:#231f20"/><path d="M49,8.17a2.43,2.43,0,0,1,2.93-1.74v2c-1.86-.26-2.85.52-2.85,2.2v6.28H46.91V6.45h1.82Z" style="fill:#231f20"/><path d="M59.66,6.45,55.5,15.06h4v1.85H52.33l4.18-8.6h-4V6.45Z" style="fill:#231f20"/><path d="M67.36,6.45h1.9V16.91H67.1V14.73a3.27,3.27,0,0,1-3.17,2.39c-2.53,0-4-2.25-4-5.5s1.58-5.37,4.16-5.37a3.43,3.43,0,0,1,3.07,2.32Zm-.28,5.23c0-2.14-1-3.49-2.48-3.49s-2.53,1.31-2.53,3.49,1,3.5,2.53,3.5S67.08,13.82,67.08,11.68Z" style="fill:#231f20"/><path d="M77.69,1.76h2.14V16.91H77.69V14.73a3.29,3.29,0,0,1-3.17,2.39c-2.53,0-4-2.25-4-5.5s1.57-5.37,4.16-5.37a3.42,3.42,0,0,1,3,2.28Zm0,9.92c0-2.14-1-3.49-2.49-3.49s-2.52,1.31-2.52,3.49,1,3.5,2.52,3.5S77.67,13.82,77.67,11.68Z" style="fill:#231f20"/><path d="M92.52,16.91l-.91-3.51H87.35l-.91,3.51H84.15l4-14.34H90.8l4.1,14.34Zm-1.4-5.35a55.13,55.13,0,0,1-1.67-7.45c-.08,1-.37,2.44-1.64,7.45Z" style="fill:#231f20"/><path d="M98.21,5V6.45h2.26V8.19H98.21v8.72H96.05V8.19H95V6.45h1V4.83c0-2.38,1.47-3.21,3-3.21a4.53,4.53,0,0,1,1.46.26V3.64a3.25,3.25,0,0,0-1-.18C98.66,3.46,98.13,3.86,98.21,5Z" style="fill:#231f20"/><path d="M108.2,6.45,104,15.06h4v1.85h-7.15l4.18-8.6h-4V6.45Z" style="fill:#231f20"/><path d="M115.91,6.45h1.9V16.91h-2.17V14.73a3.27,3.27,0,0,1-3.17,2.39c-2.52,0-4-2.25-4-5.5s1.58-5.37,4.16-5.37a3.43,3.43,0,0,1,3.07,2.32Zm-.29,5.23c0-2.14-1-3.49-2.48-3.49s-2.53,1.31-2.53,3.49,1,3.5,2.53,3.5S115.62,13.82,115.62,11.68Z" style="fill:#231f20"/><path d="M121.58,1.76V16.91h-2.16V1.76Z" style="fill:#231f20"/><path d="M125.33,1.76V16.91h-2.16V1.76Z" style="fill:#231f20"/><path d="M126.73,3.78A1.26,1.26,0,0,1,128,2.51,1.27,1.27,0,1,1,128,5,1.27,1.27,0,0,1,126.73,3.78Zm2.36,2.67V16.91h-2.16V6.45Z" style="fill:#231f20"/><rect x="0.5" y="0.5" width="3.76" height="3.76" rx="0.68" transform="translate(2.37 -0.98) rotate(45)" style="fill:#231f20"/><rect x="0.5" y="5.83" width="3.76" height="3.76" rx="0.68" transform="translate(6.14 0.58) rotate(45)" style="fill:#231f20"/><rect x="0.5" y="11.15" width="3.76" height="3.76" rx="0.68" transform="translate(9.91 2.14) rotate(45)" style="fill:#231f20"/><rect x="5.83" y="0.5" width="3.76" height="3.76" rx="0.68" transform="translate(3.94 -4.75) rotate(45)" style="fill:#231f20"/><rect x="5.83" y="5.83" width="3.76" height="3.76" rx="0.68" transform="translate(7.7 -3.19) rotate(45)" style="fill:#231f20"/><rect x="11.15" y="0.5" width="3.76" height="3.76" rx="0.68" transform="translate(5.5 -8.52) rotate(45)" style="fill:#231f20"/><path d="M20.54,7.23l-1.7-1.7a.67.67,0,0,0-1,0L5.53,17.88a.67.67,0,0,0,0,1l1.7,1.7a.68.68,0,0,0,.95,0l1.72-1.7a.68.68,0,0,1,1,0l1.69,1.7a.69.69,0,0,0,1,0l1.72-1.7a.67.67,0,0,1,.95,0l1.7,1.7a.69.69,0,0,0,1,0l1.7-1.7a.69.69,0,0,0,0-1l-1.7-1.7a.67.67,0,0,1,0-.95l1.7-1.72a.69.69,0,0,0,0-1l-1.7-1.69a.68.68,0,0,1,0-1l1.7-1.72A.68.68,0,0,0,20.54,7.23Z" style="fill:#231f20"/></g></g></svg>